<svg width="123" height="135" viewBox="0 0 123 135" fill="none" xmlns="http://www.w3.org/2000/svg">
<path d="M97.1805 0.333487C95.5191 0.782287 93.6466 1.75909 92.4072 2.81509C91.8006 3.34309 89.348 6.72229 86.7108 10.6823L82.043 17.6519H45.2542H8.43901L6.90944 18.2855C3.77118 19.5791 1.71417 21.6647 0.580182 24.6743L0 26.2319V62.1359C0 95.2944 0.0263719 98.1456 0.448322 99.492C1.37134 102.475 3.92941 105.168 6.98856 106.435L8.43901 107.016L30.2222 107.095L52.0054 107.174L50.6077 113.035C49.8165 116.256 49.1309 119.16 49.0518 119.45C48.9199 119.978 48.7353 120.031 44.6476 120.137C39.7952 120.269 38.7931 120.559 36.7888 122.354C35.2329 123.78 34.389 125.549 34.2307 127.898L34.0725 129.826L29.3519 129.905L24.605 129.984L23.9721 130.723C23.1018 131.726 23.1018 133.258 23.9721 134.261L24.605 135H61.051H97.4969L98.1299 134.261C99.0001 133.258 99.0001 131.726 98.1299 130.723L97.4969 129.984L92.75 129.905L88.0294 129.826L87.8712 127.898C87.713 125.549 86.8691 123.78 85.3131 122.354C83.3089 120.559 82.3067 120.269 77.4543 120.137C73.3667 120.031 73.182 119.978 73.0502 119.45C72.9711 119.16 72.2854 116.256 71.4942 113.035L70.0965 107.174L91.8797 107.095L113.663 107.016L115.192 106.409C118.278 105.142 120.968 102.185 121.759 99.1488C122.049 98.04 122.102 91.176 122.102 62.0039V26.2319L121.522 24.6743C119.939 20.4767 116.01 17.6519 111.738 17.6519C109.839 17.6519 109.918 17.8895 110.868 15.2759C111.975 12.2663 111.421 7.77829 109.575 5.13829C108.6 3.68629 106.727 1.97029 105.382 1.31029C102.93 0.0430865 99.6331 -0.352914 97.1805 0.333487ZM102.903 5.98309C104.116 6.61669 105.25 7.85749 105.804 9.12469C106.332 10.3919 106.252 13.0055 105.646 14.1671C105.171 15.1175 87.9767 36.2903 87.3174 36.7655C87.1064 36.9239 85.7878 36.1055 83.177 34.1519C81.0936 32.5679 79.4058 31.2215 79.4322 31.1423C79.4586 31.0367 83.0979 25.5719 87.5284 18.9719C95.6245 6.85429 96.2047 6.11509 98.1299 5.50789C99.2902 5.13829 101.716 5.37589 102.903 5.98309ZM72.4173 32.0135L66.3781 41.0687L64.3475 41.2535C55.5392 42.0455 49.7902 47.7743 48.6562 56.9087C48.1815 60.5519 48.8408 67.2047 50.1066 71.4287C50.8187 73.8047 52.6647 74.5703 54.4844 73.2239C58.361 70.3991 58.572 70.3463 65.9298 70.3199C71.3888 70.2671 72.1535 70.2143 73.7095 69.7127C79.5113 67.7591 83.0188 61.7663 82.0958 55.3247C81.9375 54.2951 81.8057 53.1071 81.7793 52.7375C81.7529 52.1831 84.3374 48.8831 93.6203 37.5047L105.488 22.9319L109.47 23.0111C113.188 23.0639 113.505 23.1167 114.375 23.6975C115.562 24.5159 116.326 25.6775 116.669 27.1559C116.854 27.9215 116.959 37.2143 116.959 53.4767V78.636H75.4237C30.3013 78.636 32.6221 78.5568 31.6463 80.0616C31.0661 80.9328 31.2771 82.464 32.0419 83.2296C32.5957 83.784 32.6221 83.784 74.7116 83.916L116.828 84.048V90.912V97.776L116.089 99.0168C115.614 99.8352 114.929 100.522 114.111 100.997L112.872 101.736H61.051H9.23017L7.99069 100.997C7.17316 100.522 6.48749 99.8352 6.0128 99.0168L5.27438 97.776V90.912V84.048L9.67849 83.916C13.687 83.784 14.1353 83.7312 14.6364 83.2296C15.4012 82.464 15.6122 80.9328 15.032 80.0616C14.2672 78.9 13.186 78.636 8.96645 78.636H5.11615L5.19527 52.6847C5.27438 24.1199 5.16889 26.1527 6.90944 24.4103C8.41264 22.8791 6.32926 22.9583 43.8565 22.9319H78.4564L72.4173 32.0135ZM80.197 38.5079L83.7572 41.1743L83.2825 41.8079C81.4365 44.2367 78.2718 47.9855 78.0609 47.9855C77.929 48.0119 76.3467 46.9295 74.5534 45.6095L71.3096 43.2071L71.758 42.4943C74.3424 38.5343 76.2148 35.8679 76.3994 35.8679C76.5313 35.8679 78.2455 37.0559 80.197 38.5079ZM71.5734 49.9127C76.0302 53.2391 76.3203 53.4767 76.6368 54.6119C77.507 57.6743 76.7423 60.9743 74.6852 63.0071C72.7601 64.9079 72.259 65.0135 65.5342 65.0399C59.4423 65.0663 57.5171 65.3303 55.4338 66.4127C55.0118 66.6239 54.6162 66.7559 54.5635 66.6767C54.2206 66.3599 53.8514 63.0335 53.8251 60.2879C53.7987 55.4567 54.7217 52.5263 57.0688 50.0447C59.0731 47.9063 62.4223 46.5071 65.5869 46.4543C66.7737 46.4279 67.011 46.5599 71.5734 49.9127ZM64.743 107.254C64.743 107.333 65.4023 110.131 66.1935 113.484C66.9846 116.837 67.6439 119.688 67.6439 119.846C67.6439 119.978 64.9804 120.084 61.051 120.084C57.1216 120.084 54.458 119.978 54.458 119.846C54.458 119.688 55.1173 116.837 55.9084 113.484C56.6996 110.131 57.3589 107.333 57.3589 107.254C57.3589 107.201 59.0203 107.148 61.051 107.148C63.0816 107.148 64.743 107.201 64.743 107.254ZM80.6453 125.654C81.9112 125.998 82.6759 127.159 82.6759 128.717V129.852H61.0246H39.3733L39.4787 128.4C39.6106 126.763 40.138 125.998 41.3775 125.654C42.5643 125.311 79.4058 125.311 80.6453 125.654Z" fill="url(#paint0_linear_198_3)"/>
<path d="M24.3493 83.674C26.9602 82.5388 26.2217 78.79 23.3999 78.79C20.8682 78.79 19.7606 82.0636 21.844 83.3572C22.8198 83.9908 23.4527 84.07 24.3493 83.674Z" fill="url(#paint1_linear_198_3)"/>
<defs>
<linearGradient id="paint0_linear_198_3" x1="121.829" y1="135" x2="5.25118e-06" y2="-2.79566e-05" gradientUnits="userSpaceOnUse">
<stop stop-color="#A3059B"/>
<stop offset="1" stop-color="#007C75"/>
</linearGradient>
<linearGradient id="paint1_linear_198_3" x1="20.3708" y1="79.2917" x2="27.9878" y2="86.7072" gradientUnits="userSpaceOnUse">
<stop stop-color="#007C75"/>
<stop offset="1" stop-color="#A3059B"/>
</linearGradient>
</defs>
</svg>
