<svg width="142" height="128" viewBox="0 0 142 128" fill="none" xmlns="http://www.w3.org/2000/svg">
<path d="M131.629 1.02066C131.094 1.25995 129.785 2.06753 128.715 2.8153L126.782 4.19119L125.116 3.86217C123.926 3.62288 105.993 3.56306 65.4279 3.62288C9.93315 3.71262 7.37551 3.74253 6.03722 4.25101C4.04464 5.02868 1.84388 7.15235 0.832719 9.18627L0 10.8912V53.9625V97.0338L0.832719 98.7387C1.72492 100.593 3.30114 102.178 5.26398 103.225L6.54279 103.913L31.7623 104.003L56.9521 104.063V105.708V107.323L55.703 107.652C50.7067 108.848 47.1379 110.494 45.0561 112.498C39.8813 117.493 43.3609 123.475 53.1453 126.316C60.6398 128.5 71.4949 128.56 79.4057 126.496C91.2125 123.385 93.9188 115.1 84.6995 110.254C82.9151 109.327 79.1678 108.011 76.8184 107.502C76.0451 107.353 75.9856 107.233 75.9856 105.708V104.063L101.205 104.003L126.395 103.913L127.674 103.225C129.637 102.178 131.213 100.593 132.105 98.7387L132.938 97.0338L133.027 58.6285L133.086 20.1934L137.072 16.1255C140.73 12.4166 141.116 11.9081 141.562 10.3229C143.02 5.29789 139.391 0.542091 134.157 0.572001C133.324 0.601912 132.194 0.781376 131.629 1.02066ZM136.15 5.95592C137.22 6.79342 137.488 8.37868 136.774 9.48537C136.447 9.93403 128.893 17.6211 119.971 26.5344C109.056 37.4219 103.525 42.746 103.108 42.746C101.949 42.746 101.503 42.3571 98.2609 38.4987C94.7218 34.3112 94.4244 33.5634 95.7032 32.1576C96.0601 31.7688 104.685 25.5773 114.886 18.3987C134.811 4.37066 134.425 4.60994 136.15 5.95592ZM120.477 8.55814C120.358 8.67779 113.934 13.2242 106.231 18.6679C90.1419 30.034 90.4393 29.7349 90.3798 33.6532L90.3203 35.8366L88.7143 37.3322L87.1084 38.7978L85.0563 38.2295C80.2979 36.9134 75.2421 38.1098 71.5841 41.4C69.4726 43.3143 68.4317 45.1089 67.0934 49.1768C65.5172 53.9625 64.6547 58.2995 64.4763 62.6365C64.2978 66.1361 64.2681 66.2557 63.3164 67.6017C61.1751 70.5629 56.9223 74.0026 53.5022 75.528C49.8145 77.1731 47.6137 77.5919 42.8256 77.562C38.8404 77.532 38.0672 77.4423 35.688 76.7245C26.1712 73.8231 19.6879 67.1231 17.1897 57.7013C16.4165 54.7401 16.5057 48.1299 17.3681 44.9893C18.7064 39.9643 21.0559 36.046 24.8924 32.4268C30.0671 27.5514 35.5988 25.338 42.6769 25.3081C49.6955 25.3081 55.6732 27.7309 60.967 32.7259C61.7997 33.5036 62.7513 34.2514 63.138 34.4009C64.4465 34.9094 66.1714 33.5933 66.1714 32.038C66.1714 31.1108 63.9409 28.7179 60.9967 26.5344C50.7364 18.8474 36.3125 18.4586 25.6656 25.5773C19.3905 29.7947 14.7213 36.375 12.7287 43.8527C12.0447 46.425 11.9555 47.3522 11.9555 51.5696C11.9555 55.787 12.0447 56.7142 12.7287 59.3464C14.186 64.8499 16.8031 69.4263 20.6395 73.2847C24.595 77.203 29.5615 80.0445 35.1527 81.5401C37.74 82.2579 38.6025 82.3476 42.9743 82.3476C47.346 82.3476 48.2085 82.2579 50.7959 81.5401C54.5431 80.5231 58.6472 78.4593 61.651 76.0963C63.9707 74.2419 67.0636 70.9218 68.1045 69.1272L68.6399 68.2298L75.6585 68.0803C85.5322 67.8709 88.6846 67.0334 91.956 63.6535C95.1084 60.4232 96.8036 55.5178 96.2386 51.2705L96.0006 49.6254L97.8148 48.2795C99.391 47.1129 99.7479 46.9634 100.521 47.1428C102.097 47.5616 104.923 47.3821 106.023 46.8138C106.588 46.5147 111.852 41.4897 117.711 35.6273L128.328 24.9492V56.5946V88.2101H66.4688H4.6097V50.3134C4.6097 12.7456 4.6097 12.4166 5.2045 11.1604C5.82904 9.87421 6.78071 9.03671 8.14875 8.64788C9.13017 8.34877 120.774 8.25904 120.477 8.55814ZM95.614 42.8058L96.2088 43.5835L94.9597 44.5107C93.4727 45.6174 92.2237 45.7071 91.2422 44.7799C90.1121 43.7031 90.3203 42.3571 91.837 40.9513L93.0861 39.7549L94.0675 40.8915C94.6029 41.4897 95.2869 42.3571 95.614 42.8058ZM84.4615 43.1348C85.5024 43.4938 85.6511 43.7031 86.0378 45.1089C86.5731 46.9634 88.0601 48.7281 89.9634 49.7152C91.1233 50.3134 91.3315 50.5826 91.5099 51.5995C91.9857 54.3812 90.7961 58.0303 88.6549 60.2437C86.3649 62.6066 82.7961 63.3843 74.2905 63.3843H69.086L69.2941 61.3504C69.8592 55.787 71.3462 50.0143 72.8629 47.412C73.9931 45.4679 76.0451 43.6433 77.8295 42.9853C79.5842 42.3571 82.4095 42.417 84.4615 43.1348ZM128.269 94.6409C128.12 96.4954 127.495 97.5422 125.949 98.5891L124.967 99.2771H66.4688H7.97031L6.98889 98.5891C5.44242 97.5422 4.81788 96.4954 4.66918 94.6409L4.55022 92.9958H66.4688H128.387L128.269 94.6409ZM71.1678 107.323C71.1083 110.075 70.9893 110.733 70.454 111.451C68.283 114.382 64.6547 114.382 62.4837 111.451C61.9484 110.733 61.8294 110.075 61.7699 107.323L61.651 104.063H66.4688H71.2867L71.1678 107.323ZM58.0524 113.245C58.7662 114.801 60.8777 116.835 62.5432 117.612C64.506 118.54 68.4317 118.54 70.3945 117.612C72.06 116.835 74.1715 114.801 74.8853 113.245C75.1827 112.647 75.4503 112.139 75.5098 112.139C76.1641 112.139 81.1604 113.844 82.469 114.502C84.8482 115.698 85.7106 116.685 85.324 117.762C84.7589 119.437 81.0414 121.261 75.9856 122.398C72.06 123.265 61.3833 123.325 57.5766 122.518C52.3721 121.381 48.6546 119.706 47.7624 118.061C47.346 117.313 47.346 117.194 47.9111 116.416C48.7438 115.279 51.5691 113.814 54.5729 112.916C55.9706 112.498 57.19 112.169 57.3089 112.169C57.4279 112.139 57.755 112.647 58.0524 113.245Z" fill="url(#paint0_linear_198_48)"/>
<path d="M40.6841 32.2473C40.1191 32.6063 38.6618 34.4308 37.1153 36.704L34.4982 40.5924L29.9183 41.9683C25.2194 43.3741 24.2974 43.8826 23.4647 45.4977C22.9591 46.4848 22.9294 48.5187 23.4052 49.416C23.5837 49.775 24.922 51.6294 26.3792 53.5138L28.9963 56.9834V61.9785C28.9963 67.3624 29.1153 67.9606 30.6023 69.3365C31.1673 69.8749 31.8216 70.1142 32.9517 70.2039C34.29 70.3236 35.1822 70.1142 38.7808 68.7981L43.0336 67.2727L47.1972 68.7682C51.8664 70.4432 53.5318 70.6227 55.108 69.6655C55.7326 69.2767 56.3274 68.5289 56.714 67.6615C57.279 66.4053 57.3088 65.9267 57.1006 61.7392L56.8924 57.1928L59.7475 53.4839C62.8999 49.3861 63.4055 48.2196 62.8999 46.2754C62.2456 43.8826 61.3534 43.404 53.3236 41.1009L51.6285 40.6223L48.9519 36.6741C47.4351 34.4308 45.8886 32.4866 45.4128 32.1875C44.1935 31.4996 41.9035 31.5295 40.6841 32.2473ZM48.7139 44.5107C48.9519 44.6902 51.0039 45.408 53.2642 46.066C55.5541 46.754 57.5764 47.3821 57.7846 47.5018C58.0225 47.6513 57.279 48.8477 55.3162 51.42C53.74 53.454 52.4017 55.4281 52.2827 55.8468C52.1935 56.2357 52.1935 58.5687 52.3125 61.0214C52.4314 63.474 52.4909 65.478 52.4017 65.478C52.3422 65.478 50.3794 64.7901 48.0597 63.9825C45.7399 63.145 43.45 62.487 43.0039 62.487C42.528 62.487 40.2975 63.145 38.0373 63.9825C35.777 64.7901 33.9034 65.478 33.8439 65.478C33.7845 65.478 33.7547 63.2048 33.7547 60.4231V55.3383L32.2082 53.3044C31.3755 52.1977 30.0372 50.433 29.2342 49.416L27.777 47.5616L29.5019 47.083C30.4536 46.8138 32.6246 46.1558 34.3198 45.6473L37.4425 44.6902L40.238 40.5625L43.0336 36.4348L45.6507 40.2933C47.108 42.4169 48.476 44.3013 48.7139 44.5107Z" fill="url(#paint1_linear_198_48)"/>
<defs>
<linearGradient id="paint0_linear_198_48" x1="7.33542e-07" y1="1" x2="142" y2="128" gradientUnits="userSpaceOnUse">
<stop stop-color="#007C75"/>
<stop offset="1" stop-color="#A3059B"/>
</linearGradient>
<linearGradient id="paint1_linear_198_48" x1="63.0002" y1="70" x2="23.0002" y2="32" gradientUnits="userSpaceOnUse">
<stop stop-color="#007C75"/>
<stop offset="1" stop-color="#A3059B"/>
</linearGradient>
</defs>
</svg>
