<svg width="135" height="135" viewBox="0 0 135 135" fill="none" xmlns="http://www.w3.org/2000/svg">
<path d="M11.5805 40.4736V80.9473H7.75729H3.93404V50.9414V20.9619L4.56686 19.6436C5.12057 18.4043 6.01705 17.4287 7.22994 16.7432C7.67818 16.4795 7.65182 16.374 7.09811 14.8184C6.75533 13.8955 6.38619 13.1045 6.25436 13.0254C5.85885 12.7617 3.77584 14.1855 2.53658 15.5566C1.8774 16.2949 1.06002 17.5869 0.717248 18.4043L0.110802 19.9072L0.0317008 58.377C-0.0474008 100.38 -0.100135 98.4814 1.45553 101.145C2.82662 103.465 5.54244 105.284 8.33736 105.732C9.20748 105.891 17.935 105.996 28.4028 105.996H46.9126V113.247V120.498H43.4057C39.2924 120.498 38.0268 120.814 36.2866 122.344C34.2827 124.11 33.8872 125.402 33.7817 130.57L33.6762 135H67.479H101.282L101.176 130.57C101.071 125.402 100.675 124.11 98.6713 122.344C96.9311 120.814 95.6655 120.498 91.5522 120.498H88.0454V113.247V105.996H106.582C117.023 105.996 125.75 105.891 126.621 105.732C129.415 105.284 132.131 103.465 133.502 101.145C135.058 98.4814 135.005 100.38 134.926 58.377L134.847 19.9072L134.214 18.3252C133.344 16.1631 130.945 13.7637 128.783 12.8936L127.201 12.2607L94.0571 12.1816L60.8872 12.1289V14.1064V16.084L93.7934 16.1367L126.673 16.2158L127.728 16.7959C129.073 17.5078 129.811 18.2988 130.47 19.7754C130.998 20.9355 131.024 21.3311 131.024 50.9678V80.9473L95.771 80.8945L60.4917 80.8154L60.4126 51.6006L60.3598 22.3594L55.5346 14.3438C52.8979 9.94043 50.6567 6.35449 50.5512 6.38086C50.4194 6.43359 48.1518 10.125 45.4624 14.5811L40.5844 22.7285V51.8379V80.9736L37.3676 80.8945L34.1245 80.8154L34.0454 40.3945L33.9926 0H22.7866H11.5805V40.4736ZM30.0376 42.4512V80.9473H22.7866H15.5356V78.5742V76.2012L20.3608 76.1484L25.1596 76.0693L25.2387 74.1709L25.3178 72.2461L20.4926 72.1934L15.6674 72.1143L15.5883 70.2158L15.5092 68.3174L18.2251 68.2383L20.9409 68.1592V66.1816V64.2041L18.2251 64.125L15.5092 64.0459L15.5883 62.1475L15.6674 60.249L20.4926 60.1699L25.3178 60.1172L25.2387 58.1924L25.1596 56.2939L20.3608 56.2148L15.5356 56.1621V54.1846V52.207H18.3042H21.0991L21.02 50.2822L20.9409 48.3838L18.2514 48.3047L15.5356 48.2256V46.2744V44.2969H20.4135H25.3178L25.2387 42.3721L25.1596 40.4736L20.3608 40.3945L15.5356 40.3418V38.3643V36.3867H18.3042H21.0991L21.02 34.4619L20.9409 32.5635L18.2514 32.4844L15.5356 32.4053V30.4541V28.4766H20.4135H25.2915V26.499V24.5215H20.4135H15.5356V22.5439V20.5664H18.3042H21.0727V18.5889V16.6113H18.3042H15.5356V14.6338V12.6562H20.4135H25.2915V10.6787V8.70117H20.4135H15.5356V6.32812V3.95508H22.7866H30.0376V42.4512ZM53.1088 17.9824C54.4272 20.1709 55.5083 22.0957 55.561 22.2539C55.5874 22.4121 54.4799 23.2295 53.0825 24.0732L50.5512 25.5762L48.2837 24.2314C47.018 23.4668 45.8579 22.7549 45.6733 22.623C45.4624 22.4385 46.0952 21.1729 47.8881 18.167C49.2856 15.873 50.4721 13.9746 50.5776 13.9746C50.6567 13.9746 51.8169 15.7939 53.1088 17.9824ZM48.02 28.6348C49.312 29.4258 50.4458 30.0586 50.5512 30.0586C50.6567 30.0586 52.0014 29.2939 53.5835 28.3447L56.4047 26.6572V48.542V70.4004L50.5512 70.3477L44.6713 70.2686L44.5922 48.4365L44.5395 26.6045L45.1196 26.9209C45.436 27.0791 46.7544 27.8701 48.02 28.6348ZM56.4047 77.6514V80.9473L50.5512 80.8945L44.6713 80.8154L44.5922 77.5723L44.5131 74.3555H50.4721H56.4047V77.6514ZM131.024 91.0195C131.024 96.8994 130.998 97.2158 130.391 98.4814C130.048 99.2197 129.415 100.143 128.941 100.538C127.042 102.146 130.892 102.041 67.479 102.041C4.06588 102.041 7.91549 102.146 6.01705 100.538C5.54244 100.143 4.90963 99.2197 4.56686 98.4814C3.96041 97.2158 3.93404 96.8994 3.93404 91.0195V84.9023H67.479H131.024V91.0195ZM84.0903 113.247V120.498H67.479H50.8676V113.247V105.996H67.479H84.0903V113.247ZM95.56 124.98C96.7729 125.745 97.2739 126.932 97.2739 129.173V131.045H67.479H37.684V129.12C37.684 126.932 38.1587 125.798 39.3979 124.98C40.1626 124.479 40.7426 124.453 67.4526 124.453C94.3208 124.453 94.7163 124.453 95.56 124.98Z" fill="url(#paint0_linear_198_18)"/>
<path d="M48.4949 41.1328V47.7246H50.4724H52.45V41.1328V34.541H50.4724H48.4949V41.1328Z" fill="url(#paint1_linear_198_18)"/>
<path d="M48.4949 53.6572V55.6348H50.4724H52.45V53.6572V51.6797H50.4724H48.4949V53.6572Z" fill="url(#paint2_linear_198_18)"/>
<path d="M48.4949 62.8857V66.1816H50.4724H52.45V62.8857V59.5898H50.4724H48.4949V62.8857Z" fill="url(#paint3_linear_198_18)"/>
<path d="M57.512 93.3923L57.5911 95.3171L59.5159 95.3962L61.4143 95.4753V93.4714V91.4939H59.4368H57.4329L57.512 93.3923Z" fill="url(#paint4_linear_198_18)"/>
<path d="M65.4221 93.3926L65.5012 95.3174H67.4788H69.4563L69.5354 93.3926L69.6145 91.4941H67.4788H65.343L65.4221 93.3926Z" fill="url(#paint5_linear_198_18)"/>
<path d="M73.5432 93.4714V95.4753L75.468 95.3962L77.3665 95.3171L77.4456 93.3923L77.5247 91.4939H75.5208H73.5432V93.4714Z" fill="url(#paint6_linear_198_18)"/>
<path d="M64.5789 22.0166V23.9941H66.5564H68.5339V48.5156V73.0371H66.5564H64.5789V75.0146V76.9922H70.5115H76.4441V75.0146V73.0371H74.4666H72.489V48.5156V23.9941H74.4666H76.4441V22.0166V20.0391H70.5115H64.5789V22.0166Z" fill="url(#paint7_linear_198_18)"/>
<path d="M80.9265 31.2451V42.4512H103.998H127.069V31.2451V20.0391H103.998H80.9265V31.2451ZM123.114 31.2451V38.4961H103.998H84.8816V31.2451V23.9941H103.998H123.114V31.2451Z" fill="url(#paint8_linear_198_18)"/>
<path d="M80.9265 53.6572V60.9082H91.4734H102.02L101.968 53.71L101.888 46.5381L91.4207 46.459L80.9265 46.4062V53.6572ZM98.0125 53.71L98.0916 56.9531H91.4734H84.8816V53.6572V50.3613L91.4207 50.4141L97.9333 50.4932L98.0125 53.71Z" fill="url(#paint9_linear_198_18)"/>
<path d="M105.975 53.6572V60.9082H116.521H127.068V53.6572V46.4062H116.521H105.975V53.6572ZM123.113 53.6572V56.9531H116.521H109.93V53.6572V50.3613H116.521H123.113V53.6572Z" fill="url(#paint10_linear_198_18)"/>
<path d="M82.8775 66.5508C82.7984 66.7354 82.7721 67.6582 82.8248 68.5811L82.9039 70.2686L87.4654 70.3477L92.0006 70.4004V68.291V66.1816H87.5182C83.985 66.1816 82.983 66.2607 82.8775 66.5508Z" fill="url(#paint11_linear_198_18)"/>
<path d="M96.0611 66.5508C95.982 66.7354 95.9557 67.6582 96.0084 68.5811L96.0875 70.2686L98.0123 70.3477L99.9107 70.4268V68.291V66.1816H98.065C96.7467 66.1816 96.1666 66.2871 96.0611 66.5508Z" fill="url(#paint12_linear_198_18)"/>
<path d="M107.926 66.5508C107.847 66.7354 107.821 67.6582 107.874 68.5811L107.953 70.2686L112.514 70.3477L117.049 70.4004V68.291V66.1816H112.567C109.034 66.1816 108.032 66.2607 107.926 66.5508Z" fill="url(#paint13_linear_198_18)"/>
<path d="M121.11 66.5508C121.031 66.7354 121.004 67.6582 121.057 68.5811L121.136 70.2686L123.061 70.3477L124.96 70.4268V68.291V66.1816H123.114C121.796 66.1816 121.215 66.2871 121.11 66.5508Z" fill="url(#paint14_linear_198_18)"/>
<defs>
<linearGradient id="paint0_linear_198_18" x1="135" y1="135" x2="-7.26991e-06" y2="7.26991e-06" gradientUnits="userSpaceOnUse">
<stop stop-color="#A3059B"/>
<stop offset="1" stop-color="#007C75"/>
</linearGradient>
<linearGradient id="paint1_linear_198_18" x1="52.4512" y1="47.7246" x2="45.1923" y2="45.5463" gradientUnits="userSpaceOnUse">
<stop stop-color="#A3059B"/>
<stop offset="1" stop-color="#007C75"/>
</linearGradient>
<linearGradient id="paint2_linear_198_18" x1="52.4512" y1="55.6348" x2="48.4961" y2="51.6785" gradientUnits="userSpaceOnUse">
<stop stop-color="#A3059B"/>
<stop offset="1" stop-color="#007C75"/>
</linearGradient>
<linearGradient id="paint3_linear_198_18" x1="52.4512" y1="66.1816" x2="46.634" y2="62.6903" gradientUnits="userSpaceOnUse">
<stop stop-color="#A3059B"/>
<stop offset="1" stop-color="#007C75"/>
</linearGradient>
<linearGradient id="paint4_linear_198_18" x1="61.4155" y1="95.4753" x2="57.4341" y2="91.4927" gradientUnits="userSpaceOnUse">
<stop stop-color="#A3059B"/>
<stop offset="1" stop-color="#007C75"/>
</linearGradient>
<linearGradient id="paint5_linear_198_18" x1="69.6158" y1="95.3174" x2="65.8161" y2="91.0708" gradientUnits="userSpaceOnUse">
<stop stop-color="#A3059B"/>
<stop offset="1" stop-color="#007C75"/>
</linearGradient>
<linearGradient id="paint6_linear_198_18" x1="77.5259" y1="95.4753" x2="73.5445" y2="91.4927" gradientUnits="userSpaceOnUse">
<stop stop-color="#A3059B"/>
<stop offset="1" stop-color="#007C75"/>
</linearGradient>
<linearGradient id="paint7_linear_198_18" x1="76.4478" y1="76.9922" x2="53.6979" y2="72.2512" gradientUnits="userSpaceOnUse">
<stop stop-color="#A3059B"/>
<stop offset="1" stop-color="#007C75"/>
</linearGradient>
<linearGradient id="paint8_linear_198_18" x1="127.083" y1="42.4512" x2="109.471" y2="6.17891" gradientUnits="userSpaceOnUse">
<stop stop-color="#A3059B"/>
<stop offset="1" stop-color="#007C75"/>
</linearGradient>
<linearGradient id="paint9_linear_198_18" x1="102.027" y1="60.9082" x2="88.4881" y2="41.2093" gradientUnits="userSpaceOnUse">
<stop stop-color="#A3059B"/>
<stop offset="1" stop-color="#007C75"/>
</linearGradient>
<linearGradient id="paint10_linear_198_18" x1="127.075" y1="60.9082" x2="113.536" y2="41.2093" gradientUnits="userSpaceOnUse">
<stop stop-color="#A3059B"/>
<stop offset="1" stop-color="#007C75"/>
</linearGradient>
<linearGradient id="paint11_linear_198_18" x1="92.0034" y1="70.4004" x2="88.808" y2="63.4272" gradientUnits="userSpaceOnUse">
<stop stop-color="#A3059B"/>
<stop offset="1" stop-color="#007C75"/>
</linearGradient>
<linearGradient id="paint12_linear_198_18" x1="99.912" y1="70.4268" x2="95.6794" y2="66.5073" gradientUnits="userSpaceOnUse">
<stop stop-color="#A3059B"/>
<stop offset="1" stop-color="#007C75"/>
</linearGradient>
<linearGradient id="paint13_linear_198_18" x1="117.052" y1="70.4004" x2="113.857" y2="63.4272" gradientUnits="userSpaceOnUse">
<stop stop-color="#A3059B"/>
<stop offset="1" stop-color="#007C75"/>
</linearGradient>
<linearGradient id="paint14_linear_198_18" x1="124.961" y1="70.4268" x2="120.728" y2="66.5073" gradientUnits="userSpaceOnUse">
<stop stop-color="#A3059B"/>
<stop offset="1" stop-color="#007C75"/>
</linearGradient>
</defs>
</svg>
