<svg width="142" height="126" viewBox="0 0 142 126" fill="none" xmlns="http://www.w3.org/2000/svg">
<path d="M10.4896 0.267662C5.76306 1.29816 1.58933 5.65205 0.456069 10.6758C-0.152023 13.3551 -0.152023 87.3195 0.456069 89.9731C1.64461 95.2029 5.84598 99.4795 10.766 100.433C12.5903 100.793 29.5616 100.819 30.5566 100.458C32.2427 99.8659 32.7402 97.573 31.4411 96.3622L30.7225 95.6924L21.1036 95.5636C11.8716 95.4347 11.457 95.409 10.379 94.868C8.83116 94.0951 7.08981 92.2144 6.34351 90.4368L5.70778 88.9941V64.262V39.5299L65.7707 39.4526L125.806 39.4011V52.54V65.6789H124.783C123.512 65.6789 121.522 66.5033 120.527 67.3793L119.78 68.0491L117.901 67.2762C116.85 66.864 115.717 66.426 115.386 66.3488C114.916 66.2199 114.75 65.9108 114.612 64.8288C114.28 62.5617 113.091 60.9386 111.046 59.9596C109.719 59.3156 104.882 59.0322 102.45 59.4701C99.4369 59.9854 97.4468 61.9691 97.1428 64.7257L97.0046 66.0911L94.5446 67.0701L92.0845 68.0491L91.2277 67.3535C89.7351 66.2199 88.74 65.8593 86.971 65.8593C85.8378 65.8593 84.9809 66.0138 84.207 66.4003C82.7144 67.1216 78.1261 71.5013 77.5732 72.6864C76.7164 74.6443 77.3245 77.4782 78.9553 79.0755L79.6463 79.7453L78.5683 82.0382L77.4903 84.3568L76.0254 84.4856C74.3117 84.666 73.1784 85.1555 72.1557 86.2117C70.6908 87.6802 70.4143 88.4788 70.3038 92.1371L70.1932 95.5636H61.6246H53.0561L52.2545 96.3107C50.9001 97.573 51.2871 99.6083 53.0284 100.433C53.443 100.639 57.3404 100.716 65.6049 100.716H77.5732L78.6236 103.035L79.7016 105.379L78.8724 106.229C77.131 108.084 76.7164 110.763 77.8773 112.876C78.5959 114.19 82.9908 118.157 84.3728 118.75C86.0865 119.471 88.049 119.42 89.7904 118.621C90.5643 118.26 91.3935 117.745 91.6423 117.488C92.0845 117.024 92.1951 117.05 94.5446 117.951L97.0046 118.879L97.3086 120.553C97.6956 122.717 98.6906 124.031 100.625 124.984C102.008 125.654 102.284 125.706 105.684 125.706C107.674 125.706 109.775 125.577 110.355 125.422C112.677 124.753 114.39 122.666 114.667 120.141C114.75 119.368 114.971 118.75 115.137 118.75C115.303 118.75 116.436 118.338 117.652 117.848L119.836 116.947L120.693 117.719C122.434 119.291 125.419 119.729 127.603 118.75C129.04 118.106 133.684 113.726 134.236 112.49C135.121 110.48 134.596 107.801 132.993 106.255L132.163 105.456L133.131 103.421C133.656 102.288 134.098 101.206 134.098 101.025C134.098 100.845 134.485 100.716 135.093 100.716C136.89 100.716 138.327 100.149 139.626 98.9127C141.257 97.3927 141.561 96.388 141.561 92.2659C141.561 89.0971 141.506 88.8395 140.787 87.5514C139.737 85.6707 138.244 84.7175 136.033 84.5114L134.319 84.3568L133.684 82.7853C133.324 81.9094 132.854 80.8531 132.606 80.4151C132.219 79.7196 132.219 79.6165 132.606 79.3074C132.854 79.127 133.407 78.3799 133.849 77.6585C135.314 75.2884 134.872 72.7121 132.578 70.342L131.638 69.3887L131.555 40.4058L131.472 11.4486L130.726 9.36186C129.427 5.85815 126.718 2.63783 123.926 1.29816C121.024 -0.0930176 123.926 -0.0157242 65.5496 0.0100327C35.3661 0.0357971 11.0424 0.138847 10.4896 0.267662ZM120.361 5.549C122.047 6.09001 123.844 7.71306 124.866 9.67101L125.668 11.191L125.751 22.7069L125.834 34.2485H65.6878H5.54193L5.62486 22.9645C5.70778 11.9639 5.73542 11.6805 6.34351 10.2636C7.36621 7.89339 9.41161 6.01273 11.6505 5.36866C12.0375 5.26561 36.3612 5.16256 65.7154 5.16256C113.893 5.1368 119.2 5.18832 120.361 5.549ZM108.945 66.5033C108.945 67.7657 109.111 68.6674 109.443 69.2857C109.857 70.1101 110.161 70.2647 112.539 70.986C113.976 71.424 116.187 72.2742 117.431 72.8409C118.702 73.4335 120.002 73.923 120.361 73.923C121.135 73.923 121.964 73.4077 123.678 71.8877L124.977 70.7284L127.05 72.6348C128.183 73.6911 129.123 74.6701 129.123 74.8247C129.123 74.9792 128.515 75.6748 127.741 76.3704C126.995 77.066 126.221 78.0192 126.055 78.4829C125.778 79.2816 125.861 79.565 127.133 81.9867C127.907 83.4294 128.791 85.4389 129.095 86.4436C129.924 89.0456 130.477 89.4578 133.49 89.6382L135.895 89.767L135.978 92.3175C136.033 93.9663 135.95 94.971 135.729 95.2029C135.508 95.4605 134.762 95.5636 133.269 95.5636C130.394 95.5636 129.98 95.8727 128.985 98.8354C128.57 100.098 127.686 102.107 126.995 103.344C125.861 105.379 125.778 105.637 126.055 106.435C126.221 106.925 126.995 107.878 127.741 108.574C128.515 109.269 129.123 109.965 129.123 110.119C129.123 110.454 125.198 114.113 124.811 114.113C124.673 114.113 123.871 113.469 123.042 112.696C120.997 110.763 120.499 110.712 117.569 112.129C116.242 112.773 114.086 113.597 112.76 113.958C109.581 114.86 109.222 115.272 109.222 117.977C109.222 119.368 109.111 120.064 108.835 120.27C108.586 120.476 107.508 120.553 105.739 120.502L103.003 120.424L102.864 118.183C102.671 115.375 102.229 114.86 99.4369 114.087C98.359 113.778 96.2306 112.953 94.7104 112.258C92.1951 111.073 91.8911 110.995 90.9789 111.253C90.4538 111.408 89.4034 112.103 88.6295 112.825C87.8832 113.52 87.1369 114.113 86.971 114.113C86.8052 114.113 85.7825 113.262 84.6492 112.206C82.4103 110.119 82.3551 109.836 84.0411 108.728C85.0362 108.058 86.0036 106.641 86.0036 105.869C86.0036 105.534 85.4508 104.271 84.7874 103.06C84.1241 101.85 83.2948 99.969 82.9632 98.9127C82.051 96.1046 81.5811 95.7181 78.5959 95.5636L76.1912 95.4347L76.1083 92.5236L76.0254 89.6382H78.0431C79.3975 89.6382 80.3649 89.4836 81.0283 89.1744C81.9128 88.788 82.0787 88.5046 82.9632 86.0314C83.516 84.5372 84.4281 82.5277 84.9809 81.5487C85.5337 80.5697 86.0036 79.5392 86.0036 79.2816C86.0036 78.5087 85.3126 77.4782 83.9582 76.2416C83.2672 75.6233 82.6868 74.9792 82.6868 74.8504C82.6868 74.4125 86.3629 71.0891 86.8328 71.0891C87.0816 71.0891 87.7726 71.5528 88.3531 72.1453C89.6245 73.3562 90.6749 73.923 91.6423 73.923C92.0016 73.923 93.3837 73.4077 94.6551 72.7894C95.9542 72.1453 97.9167 71.3725 99.05 71.0891C100.432 70.7026 101.316 70.2904 101.842 69.7752C102.533 69.0796 102.588 68.8477 102.588 67.0186C102.588 65.9108 102.671 64.9061 102.781 64.8288C102.864 64.7257 104.302 64.6484 105.96 64.6484H108.945V66.5033Z" fill="url(#paint0_linear_198_7)"/>
<path d="M23.5361 11.4486C21.8224 11.8865 19.5006 13.2777 18.6437 14.3598C17.0958 16.3177 16.7642 17.2709 16.7642 19.8214C16.7642 21.8567 16.8747 22.475 17.3999 23.454C18.4226 25.3862 19.8046 26.6743 21.7947 27.6017C23.4255 28.3489 23.9231 28.4519 25.8855 28.4519C27.7375 28.4519 28.3732 28.3231 29.7552 27.7306C31.8835 26.8031 33.8184 24.8967 34.5923 22.9645C35.4215 20.955 35.2833 17.915 34.3159 16.0859C32.3811 12.376 27.7098 10.3923 23.5361 11.4486ZM28.2903 17.1679C29.9764 18.5848 30.0316 20.9292 28.4285 22.3204C27.157 23.4024 25.8303 23.6343 24.4482 23.016C21.8777 21.8309 21.4078 18.9197 23.5085 17.1421C24.6417 16.1631 27.1294 16.1889 28.2903 17.1679Z" fill="url(#paint1_linear_198_7)"/>
<path d="M47.8318 11.3972C43.05 12.6595 40.1201 16.8846 40.977 21.29C41.5574 24.2269 43.437 26.4683 46.4498 27.7822C48.6334 28.7354 51.7291 28.7354 53.968 27.7564C55.9581 26.9062 57.6719 25.3347 58.6116 23.4541C59.2197 22.2432 59.3303 21.6507 59.3303 19.8215C59.3303 17.9409 59.2197 17.4256 58.5564 16.1632C56.6215 12.4792 51.8397 10.3409 47.8318 11.3972ZM52.5584 17.2195C54.2168 18.3531 54.2997 20.8263 52.7242 22.2947C51.508 23.4283 50.1813 23.6344 48.6334 22.9388C47.1408 22.269 46.4774 21.2642 46.4774 19.7185C46.4774 18.7395 46.6433 18.3788 47.3896 17.6059C48.7992 16.1632 50.8446 16.0087 52.5584 17.2195Z" fill="url(#paint2_linear_198_7)"/>
<path d="M80.9455 11.3455C75.2792 12.5821 72.0729 18.456 74.3671 23.3251C75.141 24.9224 77.2417 26.9061 79.066 27.7306L80.6138 28.4519H95.2633C109.913 28.4519 109.913 28.4519 111.267 27.8594C113.368 26.9834 114.833 25.6953 115.856 23.9177C118.094 19.976 116.851 15.2357 112.87 12.6852C110.438 11.1137 109.719 11.0621 95.1251 11.0879C87.9109 11.1137 81.526 11.2167 80.9455 11.3455ZM109.747 16.9618C111.433 18.0953 111.903 20.1306 110.797 21.6506C109.526 23.454 109.692 23.4282 95.6503 23.4282C88.7125 23.4282 82.6316 23.3509 82.1341 23.2736C80.9455 23.0418 79.4806 21.6506 79.2594 20.4913C79.0107 19.3319 79.8399 17.4255 80.7797 16.9618C82.1341 16.292 83.2397 16.2404 95.8161 16.292L108.807 16.3435L109.747 16.9618Z" fill="url(#paint3_linear_198_7)"/>
<path d="M101.759 77.169C97.115 78.3025 92.7755 81.5744 90.7577 85.5418C89.3204 88.2984 88.9334 90.2306 89.0993 93.5798C89.2098 95.6666 89.4033 96.5682 90.0114 98.0109C92.0292 102.726 95.5948 105.92 100.708 107.595C103.307 108.471 107.84 108.574 110.465 107.827C116.215 106.229 120.665 102.081 122.379 96.7228C123.125 94.3784 123.07 90.5398 122.268 88.0923C120.499 82.7595 115.579 78.3798 109.996 77.1432C107.812 76.6795 103.749 76.6795 101.759 77.169ZM110.714 82.8883C117.845 86.0056 119.559 94.5072 114.169 99.8143C108.696 105.224 99.2986 103.885 95.7606 97.1865C94.9038 95.5635 94.7379 94.9452 94.6274 93.1418C94.4892 90.4883 94.9867 88.7364 96.4793 86.6496C97.8337 84.7432 99.9344 83.249 102.284 82.4761C104.91 81.6259 108.171 81.7805 110.714 82.8883Z" fill="url(#paint4_linear_198_7)"/>
<path d="M43.7965 54.3435C43.4648 54.4723 42.9949 54.8587 42.7462 55.1936C42.221 55.9407 36.7758 76.9115 36.7205 78.38C36.6929 79.2044 36.8311 79.5135 37.5774 80.1318C39.1529 81.4457 41.3641 80.9047 42.0275 78.9983C42.6632 77.1691 47.6109 57.5123 47.6385 56.7652C47.6385 55.6831 47.1963 54.936 46.2012 54.4723C45.3167 54.0343 44.7086 54.0086 43.7965 54.3435Z" fill="url(#paint5_linear_198_7)"/>
<path d="M25.305 56.4817C24.1441 57.1 16.3494 65.5244 16.0178 66.5033C15.4649 68.2294 15.9625 69.0538 20.385 73.6911C22.5962 76.0097 24.6693 78.1223 24.9733 78.3541C25.305 78.6375 25.996 78.8179 26.687 78.8179C28.2902 78.8179 29.3405 77.8131 29.3405 76.3189C29.3405 75.3399 29.1194 75.0308 25.7472 71.4755C23.7848 69.4145 22.154 67.6111 22.154 67.5081C22.154 67.405 22.8726 66.5806 23.7571 65.6532C29.534 59.5732 29.3405 59.8051 29.3405 58.6973C29.3405 56.7393 27.1016 55.5027 25.305 56.4817Z" fill="url(#paint6_linear_198_7)"/>
<path d="M55.931 56.7908C54.9636 57.5637 54.6872 58.5685 55.1847 59.6247C55.3782 60.0369 57.0643 61.9691 58.8885 63.8756C60.7128 65.782 62.233 67.4308 62.233 67.5081C62.233 67.6111 60.6575 69.3115 58.7503 71.321C54.6042 75.6748 54.162 76.6538 55.7928 78.148C56.318 78.6633 56.7879 78.8179 57.6447 78.8179C58.2528 78.8179 58.9715 78.6633 59.2202 78.483C60.4364 77.6328 68.0652 69.3115 68.3416 68.5644C68.9221 66.9413 68.4798 66.1169 65.3288 62.7678C63.698 61.0417 61.5697 58.8519 60.5746 57.8729C58.9991 56.3786 58.6398 56.1468 57.7553 56.1468C57.0919 56.1468 56.4838 56.3529 55.931 56.7908Z" fill="url(#paint7_linear_198_7)"/>
<path d="M40.3688 95.9499C38.7657 96.7743 38.6828 98.8869 40.203 100.098C40.9217 100.664 41.2533 100.742 42.1655 100.639C43.7133 100.433 44.5426 99.5052 44.5426 98.0109C44.5426 97.0835 44.4044 96.8001 43.6857 96.2333C42.7459 95.4862 41.5021 95.3832 40.3688 95.9499Z" fill="url(#paint8_linear_198_7)"/>
<defs>
<linearGradient id="paint0_linear_198_7" x1="144.5" y1="128.18" x2="-0.637339" y2="-5.43947" gradientUnits="userSpaceOnUse">
<stop stop-color="#A3059B"/>
<stop offset="1" stop-color="#007C75"/>
</linearGradient>
<linearGradient id="paint1_linear_198_7" x1="35.5182" y1="28.7922" x2="15.6881" y2="11.5612" gradientUnits="userSpaceOnUse">
<stop stop-color="#A3059B"/>
<stop offset="1" stop-color="#007C75"/>
</linearGradient>
<linearGradient id="paint2_linear_198_7" x1="59.7144" y1="28.8358" x2="39.7852" y2="11.4782" gradientUnits="userSpaceOnUse">
<stop stop-color="#A3059B"/>
<stop offset="1" stop-color="#007C75"/>
</linearGradient>
<linearGradient id="paint3_linear_198_7" x1="117.861" y1="28.7938" x2="101.957" y2="-3.65324" gradientUnits="userSpaceOnUse">
<stop stop-color="#A3059B"/>
<stop offset="1" stop-color="#007C75"/>
</linearGradient>
<linearGradient id="paint4_linear_198_7" x1="123.608" y1="108.946" x2="87.3923" y2="77.1651" gradientUnits="userSpaceOnUse">
<stop stop-color="#A3059B"/>
<stop offset="1" stop-color="#007C75"/>
</linearGradient>
<linearGradient id="paint5_linear_198_7" x1="47.8653" y1="81.3796" x2="29.2529" y2="75.1645" gradientUnits="userSpaceOnUse">
<stop stop-color="#A3059B"/>
<stop offset="1" stop-color="#007C75"/>
</linearGradient>
<linearGradient id="paint6_linear_198_7" x1="29.6217" y1="79.2643" x2="8.93982" y2="69.1948" gradientUnits="userSpaceOnUse">
<stop stop-color="#A3059B"/>
<stop offset="1" stop-color="#007C75"/>
</linearGradient>
<linearGradient id="paint7_linear_198_7" x1="68.8429" y1="79.2642" x2="48.0315" y2="69.0222" gradientUnits="userSpaceOnUse">
<stop stop-color="#A3059B"/>
<stop offset="1" stop-color="#007C75"/>
</linearGradient>
<linearGradient id="paint8_linear_198_7" x1="44.6553" y1="100.778" x2="38.8139" y2="95.6826" gradientUnits="userSpaceOnUse">
<stop stop-color="#A3059B"/>
<stop offset="1" stop-color="#007C75"/>
</linearGradient>
</defs>
</svg>
