<svg width="50" height="35" viewBox="0 0 50 35" fill="none" xmlns="http://www.w3.org/2000/svg">
<path d="M20.8322 20.669C20.8322 21.1249 20.6855 21.5706 20.4107 21.9497C20.1359 22.3288 19.7454 22.6243 19.2884 22.7988C18.8315 22.9732 18.3287 23.0189 17.8436 22.9299C17.3585 22.841 16.9129 22.6214 16.5632 22.299C16.2135 21.9766 15.9753 21.5659 15.8788 21.1187C15.7823 20.6715 15.8319 20.208 16.0211 19.7868C16.2104 19.3656 16.5309 19.0055 16.9422 18.7522C17.3534 18.4989 17.8369 18.3637 18.3315 18.3637C18.9947 18.3637 19.6308 18.6066 20.0997 19.0389C20.5687 19.4712 20.8322 20.0576 20.8322 20.669ZM31.6685 18.3637C31.1739 18.3637 30.6905 18.4989 30.2792 18.7522C29.868 19.0055 29.5475 19.3656 29.3582 19.7868C29.1689 20.208 29.1194 20.6715 29.2159 21.1187C29.3124 21.5659 29.5505 21.9766 29.9003 22.299C30.25 22.6214 30.6956 22.841 31.1807 22.9299C31.6658 23.0189 32.1686 22.9732 32.6255 22.7988C33.0824 22.6243 33.473 22.3288 33.7478 21.9497C34.0226 21.5706 34.1692 21.1249 34.1692 20.669C34.1692 20.0576 33.9058 19.4712 33.4368 19.0389C32.9678 18.6066 32.3318 18.3637 31.6685 18.3637ZM48.84 28.8334C45.3807 31.5997 40.7336 33.7129 35.4196 34.9039C35.1535 34.9642 34.8808 34.9964 34.6068 35C33.9893 34.9995 33.3844 34.8389 32.8611 34.5366C32.3379 34.2343 31.9174 33.8024 31.6477 33.2903L29.668 29.6403C26.5665 29.9733 23.4335 29.9733 20.332 29.6403L18.3523 33.2903C18.0826 33.8024 17.6621 34.2343 17.1389 34.5366C16.6156 34.8389 16.0107 34.9995 15.3931 35C15.1192 34.9964 14.8465 34.9642 14.5804 34.9039C9.26644 33.7129 4.61931 31.5997 1.16001 28.8334C0.672099 28.4466 0.316068 27.9378 0.134877 27.3685C-0.0463142 26.7993 -0.0449209 26.1938 0.138888 25.6253L7.2242 3.87901C7.36037 3.43918 7.60394 3.03392 7.93626 2.69428C8.26858 2.35464 8.68082 2.08962 9.1414 1.91954C11.2269 1.11849 13.3899 0.501003 15.6015 0.0753296C16.404 -0.0920591 17.2453 0.0217348 17.9617 0.39457C18.6781 0.767404 19.2185 1.37261 19.4776 2.09243L20.728 5.5119C23.5678 5.23018 26.4322 5.23018 29.272 5.5119L30.5224 2.09243C30.7815 1.37261 31.3219 0.767404 32.0383 0.39457C32.7547 0.0217348 33.596 -0.0920591 34.3985 0.0753296C36.6101 0.501003 38.7731 1.11849 40.8586 1.91954C41.3192 2.08962 41.7314 2.35464 42.0637 2.69428C42.3961 3.03392 42.6396 3.43918 42.7758 3.87901L49.8611 25.6253C50.0449 26.1938 50.0463 26.7993 49.8651 27.3685C49.6839 27.9378 49.3279 28.4466 48.84 28.8334ZM46.6519 26.5282L39.5874 4.76269C37.6822 4.03303 35.708 3.46712 33.6899 3.07217L32.6271 5.95374C34.0018 6.19662 35.3589 6.5174 36.6908 6.91426C36.8988 6.97733 37.0912 7.07755 37.2572 7.20919C37.4232 7.34083 37.5594 7.50131 37.6581 7.68148C37.7568 7.86165 37.816 8.05798 37.8324 8.25925C37.8488 8.46052 37.822 8.66279 37.7536 8.85452C37.6851 9.04625 37.5764 9.22368 37.4336 9.37668C37.2908 9.52968 37.1167 9.65525 36.9213 9.74623C36.7259 9.83721 36.5129 9.89181 36.2946 9.90691C36.0762 9.92202 35.8568 9.89733 35.6488 9.83426C32.4604 8.87373 28.7719 8.37426 25 8.37426C21.2281 8.37426 17.5396 8.87373 14.3512 9.83426C14.1837 9.88765 14.0074 9.91365 13.8302 9.9111C13.4337 9.91119 13.0502 9.78101 12.7484 9.54392C12.4466 9.30683 12.2464 8.97835 12.1837 8.61745C12.1209 8.25654 12.1998 7.88684 12.4061 7.57469C12.6123 7.26255 12.9326 7.02839 13.3092 6.91426C14.6411 6.5174 15.9982 6.19662 17.3729 5.95374L16.3309 3.07217C14.3084 3.4668 12.3279 4.0261 10.4126 4.74348L3.32728 26.509C6.39064 28.9679 10.5585 30.8313 15.3723 31.9263L16.8727 29.1408C15.6678 28.9163 14.478 28.6276 13.3092 28.2763C13.1013 28.2133 12.9088 28.113 12.7428 27.9814C12.5768 27.8498 12.4406 27.6893 12.3419 27.5091C12.2432 27.3289 12.184 27.1326 12.1676 26.9313C12.1512 26.7301 12.178 26.5278 12.2464 26.3361C12.3149 26.1443 12.4236 25.9669 12.5664 25.8139C12.7092 25.6609 12.8833 25.5353 13.0787 25.4444C13.2741 25.3534 13.4871 25.2988 13.7055 25.2837C13.9238 25.2686 14.1432 25.2933 14.3512 25.3563C17.5396 26.3169 21.2281 26.8163 25 26.8163C28.7719 26.8163 32.4604 26.3169 35.6488 25.3563C36.0689 25.229 36.5266 25.2606 36.9213 25.4444C37.316 25.6281 37.6154 25.9489 37.7536 26.3361C37.8917 26.7233 37.8574 27.1452 37.6581 27.5091C37.4588 27.873 37.1108 28.149 36.6908 28.2763C35.522 28.6276 34.3322 28.9163 33.1273 29.1408L34.6277 31.9263C39.4415 30.8313 43.6094 28.9679 46.6519 26.5282Z" fill="white"/>
</svg>
