<svg width="37" height="37" viewBox="0 0 37 37" fill="none" xmlns="http://www.w3.org/2000/svg">
<path d="M36.0225 0.692076C35.6426 0.345691 35.1846 0.118847 34.697 0.0355925C34.2094 -0.0476615 33.7104 0.0157779 33.2529 0.219185L1.68526 14.2373C1.17514 14.4679 0.740846 14.8637 0.440024 15.3722C0.139202 15.8806 -0.0139164 16.4777 0.000994126 17.0842C0.0159047 17.6906 0.198139 18.2777 0.523506 18.7675C0.848873 19.2574 1.30198 19.6268 1.82268 19.8267L8.63411 22.4276L12.3253 35.8507C12.3323 35.8779 12.3552 35.8953 12.3658 35.9205C12.4038 36.0276 12.4593 36.1261 12.5296 36.2112C12.6364 36.3424 12.7743 36.4384 12.9278 36.4883C12.9454 36.4961 12.9578 36.5135 12.9754 36.5174H12.986L12.9912 36.5194C13.1275 36.5516 13.2692 36.5436 13.4018 36.4961C13.4159 36.4922 13.4299 36.4922 13.4458 36.4864C13.5731 36.4373 13.6883 36.3563 13.7823 36.25C13.7929 36.2364 13.8105 36.2345 13.8211 36.2228L19.1296 29.7768L26.8766 36.3759C27.347 36.781 27.9267 37 28.524 37C29.8172 37 30.9325 36.0038 31.1985 34.6142L36.9458 3.57012C37.0433 3.04311 37.0089 2.49687 36.8463 1.98967C36.6837 1.48246 36.399 1.03332 36.0225 0.690138V0.692076ZM14.251 24.9762L13.0053 31.6373L10.4066 22.1834L23.2947 14.7993L14.4906 24.4858C14.3687 24.6198 14.2853 24.7904 14.251 24.9762ZM29.4719 34.2247C29.4388 34.4004 29.3652 34.5639 29.2581 34.6993C29.1511 34.8347 29.0141 34.9375 28.8605 34.998C28.7106 35.0614 28.5483 35.0809 28.3895 35.0543C28.2307 35.0278 28.0809 34.9563 27.9549 34.8468L19.5631 27.6972C19.3876 27.5483 19.1676 27.4775 18.9469 27.4991C18.7261 27.5206 18.5209 27.6329 18.372 27.8135L14.6774 32.2924L15.9213 25.6506L28.5874 11.7159C28.7357 11.5522 28.826 11.3355 28.8419 11.105C28.8578 10.8746 28.7982 10.6455 28.6741 10.459C28.5499 10.2726 28.3692 10.1411 28.1646 10.0883C27.96 10.0356 27.7451 10.0649 27.5585 10.1712L9.3001 20.6329L2.39882 17.9933C2.21584 17.9268 2.05624 17.7992 1.94225 17.6283C1.82825 17.4574 1.76552 17.2517 1.76278 17.0398C1.754 16.8259 1.80594 16.6144 1.91138 16.4345C2.01683 16.2546 2.17056 16.1153 2.35125 16.0358L33.9136 2.01772C34.0753 1.94213 34.253 1.91768 34.4267 1.94713C34.6004 1.97657 34.7632 2.05874 34.8967 2.18439C35.0295 2.30259 35.1298 2.45907 35.1864 2.63635C35.243 2.81363 35.2538 3.00473 35.2174 3.18832L29.4719 34.2266V34.2247Z" fill="white"/>
</svg>
