<svg width="50" height="35" viewBox="0 0 50 35" fill="none" xmlns="http://www.w3.org/2000/svg">
<path d="M45.9122 2.20629C44.5589 1.25879 40.7879 0 24.9867 0C8.05394 0 5.54177 1.44555 4.73555 1.91855C0.444791 4.4262 0.0374114 15.5283 0 17.7793C0.0515078 20.7525 0.545514 30.6444 4.73247 33.0914C5.53714 33.5628 8.03521 35 24.9867 35C40.7981 35 44.5644 33.7473 45.9122 32.8036C49.5692 30.2443 49.9899 21.4305 50 17.7407C49.9906 14.7737 49.6707 4.84007 45.9122 2.20634L45.9122 2.20629ZM44.0891 30.3392C43.5451 30.7203 40.4218 31.9631 24.9866 31.9631C10.0642 31.9631 6.93316 30.8364 6.3416 30.4894C4.83539 29.6103 3.24567 24.9433 3.12085 17.771C3.24416 10.6146 4.85573 5.39041 6.34482 4.52186C6.93794 4.17338 10.0806 3.03759 24.9866 3.03759C40.4093 3.03759 43.5411 4.28883 44.0891 4.67147C45.426 5.60835 46.8572 10.5402 46.8783 17.7505C46.8572 25.074 45.4165 29.4099 44.0891 30.3392H44.0891ZM35.1657 16.3057L21.1214 7.92155C20.8846 7.78266 20.6142 7.70744 20.3377 7.70357C20.0613 7.6997 19.7887 7.76733 19.548 7.89953C19.307 8.03176 19.1065 8.22389 18.9669 8.45627C18.8273 8.68865 18.7536 8.95294 18.7535 9.22209V25.9932C18.7537 26.3959 18.9182 26.782 19.2109 27.0667C19.5036 27.3514 19.9005 27.5115 20.3144 27.5117C20.5984 27.5117 20.8771 27.4364 21.1205 27.2938L35.165 18.9067C35.6332 18.6311 35.9197 18.1385 35.9197 17.6062C35.9197 17.0739 35.634 16.5797 35.1658 16.3057H35.1657ZM21.876 23.3033V11.9104L31.3386 17.6061L21.876 23.3033Z" fill="white"/>
</svg>
